# xmcd CD database file
#
# Track frame offsets:
#	182
#	28542
#	47047
#	87447
#	99557
#	121547
#	145435
#	163967
#	197292
#	222940
#	245695
#	266162
#	281517
#	303110
#	325312
#
# Disc length: 4396 seconds
#
# Revision: 2
# Processed by: cddbd v1.4PL0 Copyright (c) Steve Scherf et al.
# Submitted via: CDex 1.50Beta7
#
DISCID=d6112a0f
DTITLE=Virtual Audio Project - Blue
DYEAR=1900
DGENRE=New Age
TTITLE0=Randomity - Blue
TTITLE1=Infinity - Paradise Island
TTITLE2=Direct 2 Brain - Waves
TTITLE3=Dioxide - Deep World
TTITLE4=The Univac - Secret of the Shell
TTITLE5=Direct 2 Brain - The Sea
TTITLE6=MG Atmosphere - Sensations
TTITLE7=Realogic - UBoat
TTITLE8=Lens Flare - The Great Barrier Reef
TTITLE9=Pupillo - Acquatic
TTITLE10=J.C. Pool - Bubbles
TTITLE11=Offset - Spheres
TTITLE12=Mithos - Flying Deep
TTITLE13=Modular Gates - Sea Theme
TTITLE14=Holophonic Effects - Mineral Water
EXTD=
EXTT0=
EXTT1=
EXTT2=
EXTT3=
EXTT4=
EXTT5=
EXTT6=
EXTT7=
EXTT8=
EXTT9=
EXTT10=
EXTT11=
EXTT12=
EXTT13=
EXTT14=
PLAYORDER=
